<svg width="275.2099960327149" height="62.040121229473435" viewBox="0 0 369.66666666666663 83.33332780459436" class="css-1j8o68f"><defs id="SvgjsDefs1335"></defs><g id="SvgjsG1336" featurekey="QMusi1-0" transform="matrix(1.4493257459573639,0,0,1.4493257459573639,-30.799620631201527,-30.799626159940487)" fill="#3dd2cc"><path xmlns="http://www.w3.org/2000/svg" d="M70.842,69.771c4.895-5.157,7.907-12.117,7.907-19.771c0-7.836-3.155-14.947-8.257-20.138  c-0.059-0.063-0.112-0.129-0.173-0.19c-0.048-0.048-0.103-0.088-0.151-0.135c-5.193-5.12-12.316-8.286-20.168-8.286  c-7.853,0-14.979,3.168-20.172,8.29c-0.047,0.045-0.1,0.084-0.146,0.131c-0.059,0.059-0.11,0.123-0.166,0.183  C24.409,35.047,21.251,42.16,21.251,50c0,7.655,3.014,14.615,7.909,19.772c0.157,0.192,0.325,0.378,0.502,0.556  c0.137,0.138,0.287,0.262,0.435,0.389c5.17,4.968,12.183,8.032,19.902,8.032c7.718,0,14.729-3.063,19.898-8.028  c0.149-0.128,0.301-0.254,0.439-0.393C70.516,70.15,70.684,69.964,70.842,69.771z M72.698,62.144  c-0.352-3.622-1.937-7.841-4.587-12.17c1.379-2.258,2.499-4.516,3.293-6.708c0.7-1.934,1.126-3.748,1.289-5.417  c1.948,3.622,3.056,7.76,3.056,12.152C75.749,54.389,74.643,58.523,72.698,62.144z M68.067,68.324  c-1.04,0.957-2.517,1.456-4.419,1.456c-3.107,0-6.91-1.279-10.857-3.518c2.477-1.763,4.936-3.836,7.281-6.182  c2.337-2.337,4.408-4.808,6.186-7.313c0.952,1.685,1.755,3.359,2.345,4.988c1.66,4.581,1.553,8.305-0.26,10.292  C68.251,68.141,68.16,68.233,68.067,68.324z M31.931,68.322c-0.091-0.09-0.181-0.18-0.27-0.271  c-1.815-1.986-1.923-5.712-0.263-10.295c0.59-1.629,1.392-3.304,2.344-4.988c1.778,2.505,3.849,4.976,6.186,7.313  c2.346,2.346,4.805,4.419,7.281,6.182c-3.947,2.238-7.75,3.518-10.857,3.518C34.448,69.78,32.97,69.281,31.931,68.322z   M42.049,57.96c-2.551-2.551-4.778-5.255-6.6-7.975c1.819-2.71,4.04-5.404,6.582-7.945c2.55-2.55,5.264-4.771,7.969-6.586  c2.706,1.815,5.42,4.037,7.97,6.586c2.541,2.542,4.763,5.235,6.581,7.945c-1.822,2.72-4.049,5.424-6.6,7.975  c-2.545,2.544-5.252,4.761-7.951,6.574C47.301,62.721,44.594,60.504,42.049,57.96z M31.77,31.834c0.025-0.025,0.05-0.05,0.075-0.075  c1.043-1.019,2.563-1.54,4.526-1.54c3.102,0,6.897,1.274,10.837,3.506c-2.481,1.765-4.946,3.842-7.297,6.193  c-2.367,2.367-4.431,4.818-6.174,7.267c-0.94-1.669-1.734-3.329-2.319-4.943C29.727,37.578,29.859,33.791,31.77,31.834z   M68.153,31.758c0.026,0.026,0.054,0.053,0.08,0.08c1.908,1.957,2.04,5.743,0.351,10.406c-0.585,1.614-1.378,3.273-2.319,4.943  c-1.742-2.449-3.807-4.9-6.174-7.267c-2.351-2.351-4.815-4.428-7.297-6.193c3.939-2.231,7.734-3.506,10.836-3.506  C65.592,30.22,67.11,30.74,68.153,31.758z M62.14,27.3c-3.667,0.353-7.874,1.97-12.14,4.581c-4.265-2.611-8.473-4.228-12.14-4.581  c3.619-1.943,7.752-3.049,12.14-3.049S58.521,25.356,62.14,27.3z M27.307,37.847c0.163,1.669,0.588,3.484,1.289,5.417  c0.794,2.192,1.915,4.451,3.293,6.709c-2.649,4.329-4.235,8.548-4.587,12.171C25.357,58.523,24.251,54.39,24.251,50  C24.251,45.607,25.359,41.469,27.307,37.847z M37.856,72.698c3.669-0.356,7.878-1.976,12.144-4.59  c4.266,2.614,8.475,4.233,12.144,4.59c-3.62,1.944-7.755,3.051-12.144,3.051C45.611,75.749,41.477,74.643,37.856,72.698z"></path></g><g id="SvgjsG1337" featurekey="UyNsn2-0" transform="matrix(3.248070008755059,0,0,3.248070008755059,98.77763537073699,-7.059269062822072)" fill="#122d42"><path d="M1.3 5.699999999999999 l8.42 0 c-0.13334 0.50666 -0.26668 0.98666 -0.40002 1.44 s-0.26668 0.92 -0.40002 1.4 l-4.4 0 c0 0.05334 0.0066602 0.13 0.02 0.23 s0.02 0.17666 0.02 0.23 l0 2.1 l4.04 0 l0 2.86 l-4.04 0 l0 2.74 l-0.04 0.46 l5.28 0 l0 2.84 l-8.5 0 l0 -14.3 z M16.740000000000002 15.42 c-0.13334 -0.02666 -0.2733 -0.04338 -0.41996 -0.050038 s-0.27332 -0.01 -0.37998 -0.01 c-0.56 0 -1.0133 0.08666 -1.36 0.26 s-0.52 0.47334 -0.52 0.9 c0 0.26666 0.06334 0.47666 0.19 0.63 s0.28332 0.26668 0.46998 0.34002 s0.38332 0.11668 0.58998 0.13002 s0.38332 0.02 0.52998 0.02 c0.26666 0 0.56666 -0.03334 0.9 -0.1 l0 -2.12 z M15.7 13.219999999999999 c0.10666 0 0.24996 0.0033594 0.42996 0.01002 s0.38334 0.01666 0.61 0.03 c-0.01334 -0.52 -0.19668 -0.85666 -0.55002 -1.01 s-0.81 -0.23 -1.37 -0.23 c-0.30666 0 -0.66 0.03666 -1.06 0.11 s-0.83334 0.18334 -1.3 0.33 l-0.32 -1.1 c-0.04 -0.14666 -0.09666 -0.36 -0.17 -0.64 s-0.12334 -0.5 -0.15 -0.66 c0.66666 -0.22666 1.2967 -0.39 1.89 -0.49 s1.13 -0.15 1.61 -0.15 c1.4133 0 2.5066 0.33666 3.28 1.01 s1.16 1.75 1.16 3.23 l0 5.86 c-0.52 0.14666 -1.12 0.29 -1.8 0.43 s-1.4133 0.21 -2.2 0.21 c-0.69334 0 -1.3233 -0.06 -1.89 -0.18 s-1.0533 -0.32 -1.46 -0.6 s-0.72 -0.64666 -0.94 -1.1 s-0.33 -1.0067 -0.33 -1.66 s0.13666 -1.2 0.41 -1.64 s0.62668 -0.79 1.06 -1.05 s0.92 -0.44334 1.46 -0.55 s1.0833 -0.16 1.63 -0.16 z M23.74 15.68 c-0.72 -0.21334 -1.3133 -0.53998 -1.78 -0.97998 s-0.7 -1.0733 -0.7 -1.9 c0 -1.04 0.36666 -1.8533 1.1 -2.44 s1.7467 -0.88 3.04 -0.88 c0.49334 0 1.0033 0.05334 1.53 0.16 s1.1833 0.3 1.97 0.58 l-1.2 2.16 c-0.41334 -0.14666 -0.77 -0.25666 -1.07 -0.33 s-0.64334 -0.11 -1.03 -0.11 c-0.36 0 -0.64334 0.05 -0.85 0.15 s-0.31 0.26334 -0.31 0.49 c0 0.18666 0.07666 0.32 0.23 0.4 s0.35668 0.16666 0.61002 0.26 l1.08 0.32 c0.36 0.10666 0.69666 0.23332 1.01 0.37998 s0.58 0.33 0.8 0.55 s0.39334 0.49666 0.52 0.83 s0.19 0.74 0.19 1.22 c0 0.50666 -0.10334 0.97666 -0.31 1.41 s-0.50666 0.81 -0.9 1.13 s-0.87334 0.57 -1.44 0.75 s-1.21 0.27 -1.93 0.27 c-0.28 0 -0.55 -0.01 -0.81 -0.03 s-0.51666 -0.05334 -0.77 -0.1 s-0.52 -0.11 -0.8 -0.19 s-0.58 -0.17334 -0.9 -0.28 c0.02666 -0.09334 0.05332 -0.2 0.07998 -0.32 s0.06666 -0.27 0.12 -0.45 s0.11334 -0.39666 0.18 -0.65 s0.15332 -0.56668 0.25998 -0.94002 c0.56 0.14666 1.03 0.25332 1.41 0.31998 s0.76334 0.1 1.15 0.1 c0.16 0 0.33 -0.01334 0.51 -0.04 s0.35 -0.07332 0.51 -0.13998 s0.29334 -0.15332 0.4 -0.25998 s0.16 -0.24666 0.16 -0.42 c0 -0.2 -0.07 -0.34 -0.21 -0.42 s-0.35 -0.16666 -0.63 -0.26 z M29.599999999999998 9.56 l3.36 0 l1.9 7.8 l2.18 -7.8 l3.14 0 l-2.3 7.66 c-0.25334 0.84 -0.50334 1.6767 -0.75 2.51 s-0.49 1.65 -0.73 2.45 c-0.16 0.50666 -0.35 0.92666 -0.57 1.26 s-0.47334 0.6 -0.76 0.8 s-0.60332 0.34 -0.94998 0.42 s-0.72666 0.12 -1.14 0.12 c-0.33334 0 -0.69668 -0.03666 -1.09 -0.11 s-0.84334 -0.19 -1.35 -0.35 l1.16 -2.16 l0.49 0.07 l0.33 0.03 c0.13334 0 0.26668 -0.01 0.40002 -0.03 s0.26334 -0.07 0.39 -0.15 s0.24666 -0.21 0.36 -0.39 s0.21668 -0.43 0.31002 -0.75 l0.14 -0.6 l0.28 -0.34 l-1.76 0 z M41.54 5.82 c0.62666 -0.08 1.2534 -0.14334 1.88 -0.19 s1.3 -0.07 2.02 -0.07 c2.5066 0 4.4134 0.61 5.72 1.83 s1.96 3.09 1.96 5.61 c0 2.5066 -0.66666 4.3366 -2 5.49 s-3.3066 1.73 -5.92 1.73 c-0.64 0 -1.2533 -0.02 -1.84 -0.06 s-1.1933 -0.1 -1.82 -0.18 l0 -14.16 z M44.82 17.3 c0.65334 0.06666 1.2734 0.06664 1.86 -0.000019531 s1.1033 -0.25332 1.55 -0.55998 s0.8 -0.76332 1.06 -1.37 s0.39 -1.4167 0.39 -2.43 c0 -0.89334 -0.10334 -1.6267 -0.31 -2.2 s-0.48666 -1.03 -0.84 -1.37 s-0.76 -0.57666 -1.22 -0.71 s-0.94334 -0.2 -1.45 -0.2 l-0.49 0 l-0.55 0.04 l0 8.8 z M59.800000000000004 9.44 c0.69334 0 1.34 0.09668 1.94 0.29002 s1.1167 0.50334 1.55 0.93 s0.77334 0.98 1.02 1.66 s0.37 1.5 0.37 2.46 s-0.12334 1.78 -0.37 2.46 s-0.58666 1.2333 -1.02 1.66 s-0.95 0.73666 -1.55 0.93 s-1.2467 0.29 -1.94 0.29 c-0.70666 0 -1.3567 -0.09666 -1.95 -0.29 s-1.1067 -0.50334 -1.54 -0.93 s-0.77334 -0.98 -1.02 -1.66 s-0.37 -1.5 -0.37 -2.46 c0 -0.94666 0.12334 -1.7567 0.37 -2.43 s0.58666 -1.2267 1.02 -1.66 s0.94668 -0.75 1.54 -0.95 s1.2433 -0.3 1.95 -0.3 z M59.800000000000004 17.5 c0.6 0 1.07 -0.2 1.41 -0.6 s0.51 -1.1067 0.51 -2.12 s-0.17 -1.7233 -0.51 -2.13 s-0.81 -0.61 -1.41 -0.61 c-0.58666 0 -1.0567 0.21 -1.41 0.63 s-0.53 1.1233 -0.53 2.11 c0 1.0133 0.17334 1.72 0.52 2.12 s0.82 0.6 1.42 0.6 z M74.84 18.88 c-0.53334 0.42666 -1.1067 0.74334 -1.72 0.95 s-1.24 0.31 -1.88 0.31 c-0.69334 0 -1.3467 -0.09334 -1.96 -0.28 s-1.15 -0.49 -1.61 -0.91 s-0.82334 -0.96666 -1.09 -1.64 s-0.4 -1.49 -0.4 -2.45 c0 -0.94666 0.13334 -1.7567 0.4 -2.43 s0.63 -1.2267 1.09 -1.66 s0.99666 -0.75334 1.61 -0.96 s1.2667 -0.31 1.96 -0.31 c0.42666 0 0.89332 0.06 1.4 0.18 s1.0133 0.3 1.52 0.54 l-1.32 2.16 c-0.22666 -0.10666 -0.49332 -0.18332 -0.79998 -0.22998 s-0.57332 -0.07 -0.79998 -0.07 c-0.61334 0 -1.1233 0.21666 -1.53 0.65 s-0.61 1.1433 -0.61 2.13 c0 0.50666 0.05334 0.92 0.16 1.24 s0.25666 0.58 0.45 0.78 s0.42 0.34666 0.68 0.44 s0.54334 0.15334 0.85 0.18 c0.41334 0.04 0.82334 0.0066602 1.23 -0.1 s0.77 -0.28 1.09 -0.52 z M78.24 15.68 c-0.72 -0.21334 -1.3133 -0.53998 -1.78 -0.97998 s-0.7 -1.0733 -0.7 -1.9 c0 -1.04 0.36666 -1.8533 1.1 -2.44 s1.7467 -0.88 3.04 -0.88 c0.49334 0 1.0033 0.05334 1.53 0.16 s1.1833 0.3 1.97 0.58 l-1.2 2.16 c-0.41334 -0.14666 -0.77 -0.25666 -1.07 -0.33 s-0.64334 -0.11 -1.03 -0.11 c-0.36 0 -0.64334 0.05 -0.85 0.15 s-0.31 0.26334 -0.31 0.49 c0 0.18666 0.07666 0.32 0.23 0.4 s0.35668 0.16666 0.61002 0.26 l1.08 0.32 c0.36 0.10666 0.69666 0.23332 1.01 0.37998 s0.58 0.33 0.8 0.55 s0.39334 0.49666 0.52 0.83 s0.19 0.74 0.19 1.22 c0 0.50666 -0.10334 0.97666 -0.31 1.41 s-0.50666 0.81 -0.9 1.13 s-0.87334 0.57 -1.44 0.75 s-1.21 0.27 -1.93 0.27 c-0.28 0 -0.55 -0.01 -0.81 -0.03 s-0.51666 -0.05334 -0.77 -0.1 s-0.52 -0.11 -0.8 -0.19 s-0.58 -0.17334 -0.9 -0.28 c0.02666 -0.09334 0.05332 -0.2 0.07998 -0.32 s0.06666 -0.27 0.12 -0.45 s0.11334 -0.39666 0.18 -0.65 s0.15332 -0.56668 0.25998 -0.94002 c0.56 0.14666 1.03 0.25332 1.41 0.31998 s0.76334 0.1 1.15 0.1 c0.16 0 0.33 -0.01334 0.51 -0.04 s0.35 -0.07332 0.51 -0.13998 s0.29334 -0.15332 0.4 -0.25998 s0.16 -0.24666 0.16 -0.42 c0 -0.2 -0.07 -0.34 -0.21 -0.42 s-0.35 -0.16666 -0.63 -0.26 z"></path></g></svg>